<?xml version="1.0" encoding="UTF-8"?> <svg xmlns="http://www.w3.org/2000/svg" width="52" height="42" viewBox="0 0 52 42" fill="none"><g clip-path="url(#clip0_2104_566)"><path d="M15.5466 0.393628C15.4567 0.649486 15.4082 1.04311 15.4082 1.55483C15.4082 2.0075 15.4635 2.49953 15.5466 2.81444C15.6572 3.22775 15.6849 3.60169 15.6849 4.99907V6.69167H19.4886H23.2925V4.92035C23.2925 3.40488 23.3132 3.08998 23.4308 2.75539C23.6176 2.22399 23.6176 0.925026 23.4308 0.393628C23.2925 0 23.2025 0 19.4886 0C15.7748 0 15.6849 0 15.5466 0.393628Z" fill="#398139"></path><path d="M28.9353 0.393628C28.8453 0.649486 28.7969 1.04311 28.7969 1.55483C28.7969 2.0075 28.8522 2.49953 28.9353 2.81444C29.0459 3.22775 29.0735 3.60169 29.0735 4.99907V6.69167H32.8773H36.6811V4.92035C36.6811 3.40488 36.7019 3.08998 36.8195 2.75539C37.0061 2.22399 37.0061 0.925026 36.8195 0.393628C36.6811 0 36.5912 0 32.8773 0C29.1634 0 29.0735 0 28.9353 0.393628Z" fill="#398139"></path><path d="M24.2832 9.28349C24.2832 9.73778 24.44 10.0933 24.7928 10.4291L25.2828 10.9031L25.224 9.81678C25.1653 8.8687 25.1063 8.73044 24.734 8.67118C24.342 8.61193 24.2832 8.69093 24.2832 9.28349Z" fill="#398139"></path><path d="M26.6387 10.8664C26.6387 12.2096 26.6779 12.3478 27.2267 12.8811L27.8147 13.4539V11.775C27.8147 10.1356 27.8147 10.0961 27.2267 9.76032L26.6387 9.40479V10.8664Z" fill="#398139"></path><path d="M22.1494 11.3993C22.3454 11.9721 22.4238 11.9919 23.4627 11.9919H24.5604L23.9919 11.3993C23.5608 10.9451 23.2471 10.8068 22.6983 10.8068C21.9534 10.8068 21.9534 10.8068 22.1494 11.3993Z" fill="#398139"></path><path d="M29.2248 13.4729C29.264 14.4408 29.362 15.0136 29.4796 14.9543C29.7541 14.816 29.6953 12.4261 29.4012 12.1298C29.2248 11.952 29.1856 12.2285 29.2248 13.4729Z" fill="#398139"></path><path d="M22.9121 13.2749C22.9121 13.3342 23.0493 13.6107 23.2258 13.8675C23.5198 14.3217 23.657 14.3613 25.2447 14.3613L26.9303 14.3415L26.2835 13.7687C25.7151 13.2354 25.5191 13.1761 24.2842 13.1761C23.5198 13.1761 22.9121 13.2156 22.9121 13.2749Z" fill="#398139"></path><path d="M26.0293 16.0592C26.7349 16.3751 28.499 16.3555 28.499 16.0394C28.499 15.9209 27.8129 15.8221 26.9309 15.8024C25.3824 15.7629 25.3824 15.7629 26.0293 16.0592Z" fill="#398139"></path><path d="M7.11719 8.49587C7.11719 8.28242 7.2885 8.10938 7.49982 8.10938H7.88244C7.95287 8.10938 8.00998 8.16706 8.00998 8.23821V10.6831H7.49982C7.2885 10.6831 7.11719 10.5101 7.11719 10.2966V8.49587Z" fill="#398139"></path><path d="M8.02092 21.9742C8.27574 22.1613 8.66776 22.2621 9.17739 22.2621C9.6282 22.2621 10.1182 22.1469 10.4318 21.9742C10.8435 21.744 11.2159 21.6864 12.6076 21.6864H14.2933V13.7706V5.85481H12.5292C11.0198 5.85481 10.7063 5.81163 10.373 5.56695C9.84382 5.17837 8.55015 5.17837 8.02092 5.56695C7.62891 5.85481 7.62891 6.0419 7.62891 13.7706C7.62891 21.4993 7.62891 21.6864 8.02092 21.9742Z" fill="#398139"></path><path d="M15.4082 13.7689V21.6187H26.1854H36.9626V13.7689V5.91907H26.1854H15.4082V13.7689ZM24.3827 7.2928C26.4401 7.78341 27.753 8.45065 29.0463 9.66737C30.7119 11.257 31.3584 13.2979 30.8098 15.2212L30.4963 16.3005L31.0842 17.2424C31.8679 18.4788 32.3383 20.0095 32.0443 20.3824C31.77 20.6964 31.1038 20.7161 31.0058 20.3824C30.7511 19.519 30.2415 18.2826 29.9084 17.7331C29.5166 17.1051 29.497 17.1051 28.9287 17.3995C27.9294 17.9293 26.4205 17.7724 24.8921 17.0266C22.9915 16.065 21.7374 14.4362 20.8361 11.7672C20.4441 10.6682 20.0522 7.66567 20.2286 7.2143C20.4049 6.76293 22.3253 6.80217 24.3827 7.2928Z" fill="#398139"></path><path d="M39.9119 21.6864C41.2969 21.6864 41.6674 21.744 42.0771 21.9742C42.3892 22.1469 42.8768 22.2621 43.3255 22.2621C43.8327 22.2621 44.2228 22.1613 44.4763 21.9742C44.8664 21.6864 44.8664 21.4993 44.8664 13.7706C44.8664 6.0419 44.8664 5.85481 44.4763 5.56695C43.9496 5.17837 42.7402 5.17837 42.0771 5.56695C41.6674 5.79723 41.2969 5.85481 39.9119 5.85481H38.2344V13.7706V21.6864H39.9119Z" fill="#398139"></path><path d="M1.43546 28.1611H3.30243L4.78246 32.0989L6.34956 28.1611H8.23586L9.33863 35.5286H7.44264L6.91061 31.2879H6.89126L5.14038 35.5286H4.38585L2.71236 31.2879H2.69301L2.08358 35.5286H0.197266L1.43546 28.1611ZM11.4126 30.5159L12.7378 33.0858L14.0341 30.5159H16.0365L12.0607 38.03H10.0873L11.7802 34.8446L9.38119 30.5159H11.4126ZM21.3449 35.0693L22.0511 33.8089C22.3736 34.1606 22.8314 34.3365 23.4247 34.3365C23.5086 34.3365 23.5956 34.3332 23.6859 34.3268C23.7762 34.3137 23.8568 34.2909 23.9277 34.2583C24.0051 34.2257 24.0664 34.1834 24.1116 34.1313C24.1631 34.0727 24.1889 34.0011 24.1889 33.9163C24.1889 33.8316 24.1664 33.7633 24.1212 33.7111C24.0761 33.659 24.018 33.62 23.9471 33.5939C23.8762 33.5678 23.7955 33.5515 23.7052 33.5451C23.6214 33.5385 23.5376 33.5352 23.4538 33.5352H22.796V32.4311H23.3473C23.5343 32.4311 23.7052 32.4051 23.86 32.353C24.0148 32.3008 24.0922 32.1933 24.0922 32.0305C24.0922 31.8742 24.018 31.7732 23.8697 31.7276C23.7278 31.6755 23.5601 31.6494 23.3667 31.6494C23.1281 31.6494 22.9249 31.682 22.7572 31.7472C22.5896 31.8058 22.4122 31.9002 22.2252 32.0305L21.6641 30.8189C21.9673 30.6691 22.28 30.5551 22.6025 30.4769C22.9249 30.3922 23.2989 30.3499 23.7246 30.3499C23.9761 30.3499 24.2244 30.3792 24.4694 30.4378C24.7145 30.4899 24.9337 30.5746 25.1272 30.6918C25.3207 30.8091 25.4787 30.9622 25.6012 31.1511C25.7238 31.34 25.785 31.568 25.785 31.8351C25.785 32.0761 25.7141 32.2975 25.5722 32.4996C25.4303 32.6949 25.2466 32.8383 25.0208 32.9294C25.3433 33.0272 25.5883 33.1737 25.756 33.3692C25.9301 33.5645 26.0172 33.7959 26.0172 34.0629C26.0172 34.3625 25.9559 34.6166 25.8333 34.8251C25.7109 35.0336 25.5431 35.2029 25.3304 35.3331C25.124 35.457 24.8789 35.5482 24.5951 35.6068C24.3115 35.6654 24.0084 35.6947 23.6859 35.6947C23.2603 35.6947 22.8443 35.6393 22.438 35.5286C22.0317 35.4113 21.6674 35.2582 21.3449 35.0693ZM26.5337 33.0173C26.5337 32.6461 26.5949 32.2975 26.7174 31.9718C26.8464 31.6462 27.0205 31.3661 27.2398 31.1315C27.4655 30.8905 27.73 30.7017 28.033 30.5648C28.3361 30.4215 28.665 30.3499 29.0197 30.3499C29.3164 30.3499 29.6001 30.4052 29.871 30.5159C30.1418 30.6267 30.3708 30.7896 30.5578 31.0045V30.5159H32.3183V35.5286H30.5578V34.9717H30.5384C30.3901 35.2062 30.1837 35.3853 29.9193 35.509C29.6614 35.6328 29.3679 35.6947 29.0391 35.6947C28.6908 35.6947 28.3619 35.6263 28.0523 35.4895C27.7492 35.3527 27.4848 35.1671 27.2592 34.9325C27.0334 34.6915 26.8561 34.4082 26.7271 34.0824C26.5981 33.7503 26.5337 33.3952 26.5337 33.0173ZM28.3523 33.0272C28.3523 33.3659 28.4554 33.6395 28.6618 33.8479C28.8746 34.0498 29.1487 34.1509 29.484 34.1509C29.8193 34.1509 30.0903 34.0531 30.2966 33.8577C30.5094 33.6558 30.6159 33.3789 30.6159 33.0272C30.6159 32.6949 30.5127 32.4246 30.3063 32.2162C30.0999 32.0011 29.8226 31.8937 29.4744 31.8937C29.1455 31.8937 28.8746 32.0011 28.6618 32.2162C28.4554 32.4246 28.3523 32.6949 28.3523 33.0272ZM33.2629 34.2583C33.3918 34.2583 33.4983 34.2323 33.5821 34.1802C33.6659 34.128 33.7304 34.0564 33.7756 33.9652C33.8271 33.874 33.8626 33.7633 33.8819 33.633C33.9013 33.4962 33.9109 33.3496 33.9109 33.1933V30.5159H38.5832V35.5286H36.8227V31.9817H35.6716V33.3887C35.6716 33.721 35.6458 34.0238 35.5941 34.2975C35.5426 34.571 35.4458 34.8055 35.304 35.001C35.1685 35.1899 34.975 35.3364 34.7236 35.4407C34.472 35.5449 34.1463 35.597 33.7466 35.597C33.682 35.597 33.6079 35.5938 33.524 35.5872C33.4402 35.5872 33.3563 35.5839 33.2725 35.5775C33.1952 35.5709 33.1242 35.5645 33.0597 35.5579C32.9952 35.5513 32.9437 35.5416 32.9049 35.5286V34.2388C32.9437 34.2453 33.0017 34.2519 33.079 34.2583C33.1564 34.2583 33.2177 34.2583 33.2629 34.2583ZM39.3809 33.0272C39.3809 32.6168 39.4454 32.2455 39.5744 31.9132C39.7098 31.581 39.8969 31.3009 40.1354 31.0729C40.3805 30.8384 40.6707 30.6593 41.006 30.5355C41.3478 30.4117 41.7218 30.3499 42.1282 30.3499C42.5151 30.3499 42.873 30.4085 43.2019 30.5258C43.5373 30.6365 43.8242 30.8091 44.0629 31.0436C44.3079 31.2716 44.4981 31.5647 44.6336 31.923C44.7754 32.2748 44.8464 32.6917 44.8464 33.1737V33.3203H41.1415C41.1415 34.0629 41.5091 34.4342 42.2443 34.4342C42.4313 34.4342 42.5925 34.4016 42.7279 34.3365C42.8633 34.2649 42.9827 34.1443 43.0858 33.9749H44.7787C44.7207 34.229 44.6175 34.4635 44.4691 34.6785C44.3273 34.887 44.1467 35.0693 43.9274 35.2257C43.7081 35.3755 43.4566 35.4895 43.1729 35.5676C42.8891 35.6524 42.5796 35.6947 42.2443 35.6947C41.8186 35.6947 41.4285 35.6361 41.0738 35.5189C40.7256 35.395 40.4256 35.2192 40.1742 34.9911C39.9227 34.7566 39.7259 34.4765 39.5841 34.1509C39.4486 33.8186 39.3809 33.444 39.3809 33.0272ZM39.9227 28.6692C39.9227 28.5454 39.9452 28.4249 39.9903 28.3077C40.042 28.1904 40.1097 28.0895 40.1935 28.0048C40.2773 27.9136 40.3773 27.8419 40.4934 27.7898C40.6095 27.7377 40.7384 27.7117 40.8803 27.7117C41.0157 27.7117 41.1382 27.7377 41.2479 27.7898C41.364 27.8419 41.4639 27.9136 41.5477 28.0048C41.638 28.0895 41.7058 28.1904 41.7509 28.3077C41.8025 28.4185 41.8283 28.5389 41.8283 28.6692C41.8283 28.806 41.8025 28.9331 41.7509 29.0503C41.6993 29.1676 41.6284 29.2685 41.5381 29.3532C41.4543 29.4378 41.3543 29.5063 41.2383 29.5584C41.1286 29.604 41.0092 29.6268 40.8803 29.6268C40.7642 29.6268 40.6481 29.6072 40.5321 29.5682C40.416 29.5226 40.3128 29.4574 40.2225 29.3727C40.1322 29.2881 40.058 29.187 40 29.0698C39.9484 28.9525 39.9227 28.819 39.9227 28.6692ZM42.399 28.6692C42.399 28.5324 42.4248 28.4053 42.4764 28.2881C42.528 28.1708 42.5957 28.0699 42.6796 27.9852C42.7699 27.9006 42.873 27.8354 42.9892 27.7898C43.1052 27.7377 43.2277 27.7117 43.3567 27.7117C43.4792 27.7117 43.5953 27.7344 43.7049 27.78C43.821 27.8256 43.921 27.8907 44.0048 27.9755C44.0951 28.0601 44.166 28.1611 44.2176 28.2783C44.2756 28.3956 44.3046 28.5259 44.3046 28.6692C44.3046 28.9362 44.2144 29.1643 44.0338 29.3532C43.8532 29.5356 43.6276 29.6268 43.3567 29.6268C43.0858 29.6268 42.8569 29.5356 42.6698 29.3532C42.4893 29.1708 42.399 28.9428 42.399 28.6692ZM41.1705 32.2944H43.2116C43.16 32.0467 43.0374 31.8546 42.8439 31.7179C42.6569 31.5745 42.4442 31.5028 42.2055 31.5028C41.9476 31.5028 41.7218 31.5713 41.5285 31.708C41.3413 31.8448 41.2221 32.0403 41.1705 32.2944ZM45.6527 35.5286V30.5159H48.6611C48.8932 30.5159 49.1061 30.542 49.2995 30.5941C49.4995 30.6397 49.6704 30.7147 49.8122 30.8189C49.9606 30.9231 50.0734 31.0534 50.1508 31.2097C50.2346 31.3595 50.2765 31.542 50.2765 31.7569C50.2765 32.0304 50.2217 32.2682 50.1122 32.4702C50.0025 32.6656 49.8316 32.8154 49.5994 32.9197C49.7413 32.9457 49.8735 32.9979 49.9961 33.076C50.1185 33.1477 50.225 33.2388 50.3153 33.3496C50.412 33.4539 50.4862 33.5744 50.5378 33.7111C50.5893 33.8479 50.6151 33.9945 50.6151 34.1509C50.6151 34.6133 50.47 34.9586 50.1798 35.1866C49.8896 35.4146 49.5156 35.5286 49.0577 35.5286H45.6527ZM48.1968 34.444C48.416 34.444 48.574 34.4049 48.6708 34.3268C48.7675 34.242 48.8159 34.1085 48.8159 33.9261C48.8159 33.6069 48.6031 33.4473 48.1774 33.4473H47.4133V34.444H48.1968ZM48.0711 32.4996C48.2903 32.4996 48.4387 32.4604 48.516 32.3823C48.5934 32.3041 48.6321 32.1869 48.6321 32.0305C48.6321 31.7439 48.4418 31.6006 48.0613 31.6006H47.4133V32.4996H48.0711Z" fill="#398139"></path><path d="M18.0977 30.4933H16.3652V38.0402H18.0977V30.4933Z" fill="#398139"></path><path d="M19.7534 34.4259C19.3816 34.4259 19.0251 34.2791 18.7622 34.0177C18.4993 33.7564 18.3516 33.4019 18.3516 33.0323C18.3516 32.1033 19.7534 30.5356 19.7534 30.5356C19.7534 30.5356 21.1553 32.1033 21.1553 33.0323C21.1553 33.4019 21.0076 33.7564 20.7447 34.0177C20.4818 34.2791 20.1252 34.4259 19.7534 34.4259Z" fill="#398139"></path><g opacity="0.2" filter="url(#filter0_f_2104_566)"><path d="M20.3681 33.8449C19.7444 34.0808 19.3145 33.7663 19.0806 33.4516C18.8935 33.1999 18.9247 32.2718 19.2365 32.1145C19.5484 32.3504 19.4326 32.7437 19.5106 32.9797C19.5885 33.2157 20.2121 33.4516 20.3681 33.8449Z" fill="#398139"></path></g></g><defs><filter id="filter0_f_2104_566" x="18.7195" y="31.8691" width="1.89312" height="2.30352" filterUnits="userSpaceOnUse" color-interpolation-filters="sRGB"><feFlood flood-opacity="0" result="BackgroundImageFix"></feFlood><feBlend mode="normal" in="SourceGraphic" in2="BackgroundImageFix" result="shape"></feBlend><feGaussianBlur stdDeviation="0.122695" result="effect1_foregroundBlur_2104_566"></feGaussianBlur></filter><clipPath id="clip0_2104_566"><rect width="51" height="42" fill="white" transform="translate(0.0136719)"></rect></clipPath></defs></svg> 